<svg width="69" height="69" viewBox="0 0 69 69" fill="none" xmlns="http://www.w3.org/2000/svg">
<path d="M46.8491 33.166C51.3074 33.166 54.3118 36.267 54.3118 40.8616C54.3118 44.9962 50.8588 48.4408 46.1818 48.4408C41.059 48.4408 37.2737 44.3062 37.2737 37.9907C37.2737 23.636 47.7408 17.8941 54.3118 17.2041V23.5196C49.8564 24.3232 44.8471 28.8014 44.6228 33.7425C44.8471 33.6289 45.736 33.166 46.8491 33.166ZM24.1344 33.166C28.587 33.166 31.5943 36.267 31.5943 40.8616C31.5943 44.9962 28.1412 48.4408 23.4642 48.4408C18.3414 48.4408 14.5561 44.3062 14.5561 37.9907C14.5561 23.636 25.0232 17.8941 31.5943 17.2041V23.5196C27.1388 24.3232 22.1295 28.8014 21.9052 33.7425C22.1295 33.6289 23.0184 33.166 24.1344 33.166Z" fill="black"/>
</svg>
