<svg width="69" height="69" viewBox="0 0 69 69" fill="none" xmlns="http://www.w3.org/2000/svg">
<path d="M22.4702 32.6528C18.0204 32.6528 15.0103 29.5518 15.0103 24.9572C15.0103 20.8226 18.4634 17.3781 23.1404 17.3781C28.2632 17.3781 32.0485 21.5127 32.0485 27.8281C32.0485 42.1828 21.5814 47.9247 15.0103 48.6147V42.2992C19.4658 41.4956 24.475 37.0174 24.6994 32.0763C24.475 32.1899 23.5862 32.6528 22.4702 32.6528ZM45.1878 32.6528C40.7351 32.6528 37.7279 29.5518 37.7279 24.9572C37.7279 20.8226 41.181 17.3781 45.858 17.3781C50.9808 17.3781 54.7661 21.5127 54.7661 27.8281C54.7661 42.1828 44.299 47.9247 37.7279 48.6147V42.2992C42.1834 41.4956 47.1926 37.0174 47.417 32.0763C47.1926 32.1899 46.3038 32.6528 45.1878 32.6528Z" fill="black"/>
</svg>
