<svg width="134" height="24" viewBox="0 0 134 24" fill="none" xmlns="http://www.w3.org/2000/svg">
<circle cx="12" cy="12" r="12" fill="#FFB400"/>
<g clip-path="url(#clip0_11_163)">
<path d="M13.1666 12.8751H14.625L15.2083 10.5417H13.1666V9.37508C13.1666 8.77425 13.1666 8.20841 14.3333 8.20841H15.2083V6.24841C15.0181 6.22333 14.3001 6.16675 13.5417 6.16675C11.958 6.16675 10.8333 7.13333 10.8333 8.90841V10.5417H9.08331V12.8751H10.8333V17.8334H13.1666V12.8751Z" fill="#2B2B2B"/>
</g>
<circle cx="64" cy="12" r="12" fill="#FFB400"/>
<g clip-path="url(#clip1_11_163)">
<path d="M64 6.16675C65.5849 6.16675 65.7827 6.17258 66.4045 6.20175C67.0258 6.23091 67.4487 6.32833 67.8209 6.473C68.2059 6.62116 68.5302 6.82183 68.8545 7.14558C69.1511 7.43719 69.3807 7.78992 69.5271 8.17925C69.6712 8.55083 69.7692 8.97433 69.7984 9.59558C69.8258 10.2174 69.8334 10.4152 69.8334 12.0001C69.8334 13.585 69.8275 13.7827 69.7984 14.4046C69.7692 15.0258 69.6712 15.4487 69.5271 15.8209C69.3811 16.2105 69.1515 16.5633 68.8545 16.8546C68.5628 17.1511 68.2101 17.3806 67.8209 17.5272C67.4493 17.6712 67.0258 17.7692 66.4045 17.7984C65.7827 17.8258 65.5849 17.8334 64 17.8334C62.4151 17.8334 62.2174 17.8276 61.5955 17.7984C60.9743 17.7692 60.5514 17.6712 60.1792 17.5272C59.7897 17.381 59.4369 17.1515 59.1455 16.8546C58.8488 16.563 58.6193 16.2103 58.4729 15.8209C58.3283 15.4493 58.2309 15.0258 58.2017 14.4046C58.1743 13.7827 58.1667 13.585 58.1667 12.0001C58.1667 10.4152 58.1725 10.2174 58.2017 9.59558C58.2309 8.97375 58.3283 8.55141 58.4729 8.17925C58.6189 7.78969 58.8485 7.43685 59.1455 7.14558C59.437 6.8488 59.7898 6.61926 60.1792 6.473C60.5514 6.32833 60.9737 6.23091 61.5955 6.20175C62.2174 6.17433 62.4151 6.16675 64 6.16675ZM64 9.08342C63.2265 9.08342 62.4846 9.39071 61.9376 9.93769C61.3906 10.4847 61.0834 11.2265 61.0834 12.0001C61.0834 12.7736 61.3906 13.5155 61.9376 14.0625C62.4846 14.6095 63.2265 14.9167 64 14.9167C64.7736 14.9167 65.5154 14.6095 66.0624 14.0625C66.6094 13.5155 66.9167 12.7736 66.9167 12.0001C66.9167 11.2265 66.6094 10.4847 66.0624 9.93769C65.5154 9.39071 64.7736 9.08342 64 9.08342ZM67.7917 8.93758C67.7917 8.74419 67.7149 8.55873 67.5781 8.42198C67.4414 8.28524 67.2559 8.20841 67.0625 8.20841C66.8691 8.20841 66.6837 8.28524 66.5469 8.42198C66.4102 8.55873 66.3334 8.74419 66.3334 8.93758C66.3334 9.13097 66.4102 9.31644 66.5469 9.45318C66.6837 9.58993 66.8691 9.66675 67.0625 9.66675C67.2559 9.66675 67.4414 9.58993 67.5781 9.45318C67.7149 9.31644 67.7917 9.13097 67.7917 8.93758ZM64 10.2501C64.4641 10.2501 64.9093 10.4345 65.2375 10.7626C65.5656 11.0908 65.75 11.536 65.75 12.0001C65.75 12.4642 65.5656 12.9093 65.2375 13.2375C64.9093 13.5657 64.4641 13.7501 64 13.7501C63.5359 13.7501 63.0908 13.5657 62.7626 13.2375C62.4344 12.9093 62.25 12.4642 62.25 12.0001C62.25 11.536 62.4344 11.0908 62.7626 10.7626C63.0908 10.4345 63.5359 10.2501 64 10.2501Z" fill="#2B2B2B"/>
</g>
<circle cx="122" cy="12" r="12" fill="#FFB400"/>
<g clip-path="url(#clip2_11_163)">
<path d="M127.567 8.79042C127.833 9.82992 127.833 11.9999 127.833 11.9999C127.833 11.9999 127.833 14.1699 127.567 15.2094C127.419 15.784 126.985 16.2361 126.436 16.3889C125.439 16.6666 122 16.6666 122 16.6666C122 16.6666 118.562 16.6666 117.564 16.3889C117.013 16.2338 116.58 15.7823 116.433 15.2094C116.167 14.1699 116.167 11.9999 116.167 11.9999C116.167 11.9999 116.167 9.82992 116.433 8.79042C116.581 8.21584 117.015 7.76375 117.564 7.61092C118.562 7.33325 122 7.33325 122 7.33325C122 7.33325 125.439 7.33325 126.436 7.61092C126.988 7.76609 127.42 8.21759 127.567 8.79042ZM120.833 14.0416L124.333 11.9999L120.833 9.95825V14.0416Z" fill="#2B2B2B"/>
</g>
<defs>
<clipPath id="clip0_11_163">
<rect width="14" height="14" fill="white" transform="translate(5 5)"/>
</clipPath>
<clipPath id="clip1_11_163">
<rect width="14" height="14" fill="white" transform="translate(57 5)"/>
</clipPath>
<clipPath id="clip2_11_163">
<rect width="14" height="14" fill="white" transform="translate(115 5)"/>
</clipPath>
</defs>
</svg>
